<svg version="1.1" id="Layer_1" xmlns="http://www.w3.org/2000/svg" xmlns:xlink="http://www.w3.org/1999/xlink" x="0px" y="0px"
	 width="100%" viewBox="0 0 129 132" enable-background="new 0 0 129 132" xml:space="preserve">
<path fill="#FEFEFE" opacity="1.000000" stroke="none" 
	d="
M90.000000,133.000000 
	C60.000000,133.000000 30.500000,133.000000 1.000000,133.000000 
	C1.000000,89.000000 1.000000,45.000000 1.000000,1.000000 
	C44.000000,1.000000 87.000000,1.000000 130.000000,1.000000 
	C130.000000,45.000000 130.000000,89.000000 130.000000,133.000000 
	C116.833336,133.000000 103.666664,133.000000 90.000000,133.000000 
M41.925304,93.558693 
	C45.265919,97.023827 48.400757,100.722427 51.999706,103.894455 
	C56.409992,107.781563 61.667076,109.238922 67.273979,106.640579 
	C72.514046,104.212242 76.058708,100.192673 77.022408,94.282204 
	C77.660446,90.369064 78.094284,86.416794 78.878540,82.534355 
	C82.127327,66.451317 66.853867,52.321114 51.110970,56.885326 
	C47.932404,57.806858 44.756790,58.939133 41.500916,59.351906 
	C34.632565,60.222656 30.327982,64.024117 27.950878,70.251770 
	C25.545471,76.553566 27.916571,81.688950 32.454151,85.950035 
	C35.224903,88.551949 38.416405,90.705811 41.925304,93.558693 
M84.470467,50.849518 
	C78.918037,56.053333 77.469765,61.347904 80.417381,65.666740 
	C83.407143,70.047310 90.201149,71.011635 96.197655,67.906540 
	C101.988106,64.908142 104.228615,59.757980 102.091599,54.358425 
	C99.380630,47.508686 92.969688,46.025364 84.470467,50.849518 
M81.617737,33.988724 
	C75.998650,29.964079 71.271935,29.804712 67.254120,33.504436 
	C62.933804,37.482719 61.477802,45.682598 64.249359,50.426548 
	C66.544922,54.355770 70.558571,55.843967 74.896561,54.374355 
	C83.050880,51.611866 86.456024,42.320992 81.617737,33.988724 
M90.201859,92.580177 
	C92.809708,92.341774 95.574028,92.573586 97.993332,91.768555 
	C103.276978,90.010406 105.880020,85.475639 105.000305,80.600883 
	C104.221886,76.287437 100.719704,73.094299 96.484856,72.836868 
	C91.148361,72.512482 85.447105,76.539146 83.989227,81.662262 
	C82.607498,86.517761 84.212402,89.644150 90.201859,92.580177 
M58.655758,43.647270 
	C59.953346,38.643913 59.149437,34.375278 54.224808,31.736338 
	C49.441864,29.173321 44.196068,30.765585 41.361988,35.509136 
	C38.190670,40.817139 39.032551,47.991859 43.170036,50.917828 
	C47.178226,53.752369 53.128159,52.219959 56.619236,47.395687 
	C57.291130,46.467213 57.750061,45.384628 58.655758,43.647270 
z"/>
<path fill="#4F4F4F" opacity="1.000000" stroke="none" 
	d="
M41.672119,93.309799 
	C38.416405,90.705811 35.224903,88.551949 32.454151,85.950035 
	C27.916571,81.688950 25.545471,76.553566 27.950878,70.251770 
	C30.327982,64.024117 34.632565,60.222656 41.500916,59.351906 
	C44.756790,58.939133 47.932404,57.806858 51.110970,56.885326 
	C66.853867,52.321114 82.127327,66.451317 78.878540,82.534355 
	C78.094284,86.416794 77.660446,90.369064 77.022408,94.282204 
	C76.058708,100.192673 72.514046,104.212242 67.273979,106.640579 
	C61.667076,109.238922 56.409992,107.781563 51.999706,103.894455 
	C48.400757,100.722427 45.265919,97.023827 41.672119,93.309799 
z"/>
<path fill="#515151" opacity="1.000000" stroke="none" 
	d="
M84.779106,50.636852 
	C92.969688,46.025364 99.380630,47.508686 102.091599,54.358425 
	C104.228615,59.757980 101.988106,64.908142 96.197655,67.906540 
	C90.201149,71.011635 83.407143,70.047310 80.417381,65.666740 
	C77.469765,61.347904 78.918037,56.053333 84.779106,50.636852 
z"/>
<path fill="#515151" opacity="1.000000" stroke="none" 
	d="
M81.886536,34.278831 
	C86.456024,42.320992 83.050880,51.611866 74.896561,54.374355 
	C70.558571,55.843967 66.544922,54.355770 64.249359,50.426548 
	C61.477802,45.682598 62.933804,37.482719 67.254120,33.504436 
	C71.271935,29.804712 75.998650,29.964079 81.886536,34.278831 
z"/>
<path fill="#515151" opacity="1.000000" stroke="none" 
	d="
M89.829857,92.447723 
	C84.212402,89.644150 82.607498,86.517761 83.989227,81.662262 
	C85.447105,76.539146 91.148361,72.512482 96.484856,72.836868 
	C100.719704,73.094299 104.221886,76.287437 105.000305,80.600883 
	C105.880020,85.475639 103.276978,90.010406 97.993332,91.768555 
	C95.574028,92.573586 92.809708,92.341774 89.829857,92.447723 
z"/>
<path fill="#515151" opacity="1.000000" stroke="none" 
	d="
M58.481499,44.010204 
	C57.750061,45.384628 57.291130,46.467213 56.619236,47.395687 
	C53.128159,52.219959 47.178226,53.752369 43.170036,50.917828 
	C39.032551,47.991859 38.190670,40.817139 41.361988,35.509136 
	C44.196068,30.765585 49.441864,29.173321 54.224808,31.736338 
	C59.149437,34.375278 59.953346,38.643913 58.481499,44.010204 
z"/>
</svg>